<svg width="41" height="41" viewBox="0 0 41 41" fill="none" xmlns="http://www.w3.org/2000/svg">
<path d="M15.375 28.1875C14.1792 28.1875 13.1684 27.7747 12.3427 26.949C11.517 26.1233 11.1042 25.1125 11.1042 23.9167C11.1042 22.7209 11.517 21.7101 12.3427 20.8844C13.1684 20.0587 14.1792 19.6459 15.375 19.6459C16.5708 19.6459 17.5816 20.0587 18.4073 20.8844C19.233 21.7101 19.6458 22.7209 19.6458 23.9167C19.6458 25.1125 19.233 26.1233 18.4073 26.949C17.5816 27.7747 16.5708 28.1875 15.375 28.1875ZM8.54167 37.5834C7.60208 37.5834 6.79774 37.2488 6.12865 36.5797C5.45955 35.9106 5.125 35.1063 5.125 34.1667V10.25C5.125 9.31044 5.45955 8.5061 6.12865 7.837C6.79774 7.1679 7.60208 6.83335 8.54167 6.83335H10.25V3.41669H13.6667V6.83335H27.3333V3.41669H30.75V6.83335H32.4583C33.3979 6.83335 34.2023 7.1679 34.8714 7.837C35.5405 8.5061 35.875 9.31044 35.875 10.25V34.1667C35.875 35.1063 35.5405 35.9106 34.8714 36.5797C34.2023 37.2488 33.3979 37.5834 32.4583 37.5834H8.54167ZM8.54167 34.1667H32.4583V17.0834H8.54167V34.1667Z" fill="#E3F9FA"/>
</svg>
