<svg width="31" height="31" viewBox="0 0 31 31" fill="none" xmlns="http://www.w3.org/2000/svg">
<g clip-path="url(#clip0_5_1420)">
<path d="M30.4797 14.1118L25.7814 9.41355V3.98634C25.7814 3.00503 24.9862 2.20975 24.0035 2.20975C23.023 2.20975 22.2278 3.00503 22.2278 3.98634V5.85993L18.7296 2.36162C17 0.633022 13.993 0.636088 12.2674 2.36475L0.5201 14.1118C-0.173367 14.8066 -0.173367 15.9309 0.5201 16.6247C1.21388 17.3193 2.34037 17.3193 3.0339 16.6247L14.78 4.87736C15.1627 4.49671 15.8371 4.49671 16.2178 4.87623L27.9659 16.6247C28.3143 16.972 28.7684 17.1448 29.2225 17.1448C29.6775 17.1448 30.1324 16.9719 30.4797 16.6247C31.1734 15.931 31.1734 14.8067 30.4797 14.1118Z" fill="#002832"/>
<path d="M16.117 8.24975C15.7757 7.90865 15.2231 7.90865 14.8828 8.24975L4.54993 18.5796C4.3868 18.7427 4.29431 18.9653 4.29431 19.1977V26.7319C4.29431 28.4998 5.7278 29.9333 7.4957 29.9333H12.6115V22.0105H18.3872V29.9333H23.5031C25.271 29.9333 26.7044 28.4998 26.7044 26.7319V19.1977C26.7044 18.9653 26.6128 18.7427 26.4488 18.5796L16.117 8.24975Z" fill="#002832"/>
</g>
<defs>
<clipPath id="clip0_5_1420">
<rect width="31" height="31" fill="white"/>
</clipPath>
</defs>
</svg>
